<svg xmlns="http://www.w3.org/2000/svg" viewBox="0 0 508.78 87.62"><defs><style>.cls-1{fill:#231f20;}</style></defs><title>psp-logo</title><g id="Layer_2" data-name="Layer 2"><g id="Layer_1-2" data-name="Layer 1"><path class="cls-1" d="M82.82,27.85,48.75.15A.66.66,0,0,0,48.1,0L7.15,15.64a.7.7,0,0,0-.42.52L0,59.18a.65.65,0,0,0,.23.61L33.6,87.47a.68.68,0,0,0,.43.15.59.59,0,0,0,.23,0L75.94,71.85a.66.66,0,0,0,.43-.52l6.68-42.86a.67.67,0,0,0-.23-.62m-45,43.54,34.34.46L34.91,85.91ZM75.59,67.7,69.11,39.32a2,2,0,0,1-.07.62,5.67,5.67,0,0,1-.47.77c-.17.17-.14.47-.21.64a1,1,0,0,1-.11.21L74,66.62c.44,1.94.72,3.16.93,3.93l-36.2-.48L61.79,42a2.64,2.64,0,0,1,0-.7,1,1,0,0,0,0-.56c-.11-.19-.15-.3-.07-.44s0-.24-.07-.25L37.52,69.41C36,65.3,30.41,50.73,30.41,50.73a.82.82,0,0,1-.19.39c-.06.08-.16.07-.16.27s.19.66-.23.52a3.7,3.7,0,0,0-.4-.09l6.8,17.86L17.3,63.78a.91.91,0,0,0-.29.38c-.1.22-.05.59-.3.83,0,0,16.11,5,19.83,6.11L33.59,85.73,1.38,59,8,16.75,48.21,1.43,81.09,28.17l-9.53,3.74.28.57.2.65,9.52-3.72Z"/><path class="cls-1" d="M72.88,50.9a2.73,2.73,0,0,0-.09.56c0,.28,0,.25,0,.57a1.24,1.24,0,0,0,0,.62c.06.21.07.49.16.33s0-.43,0-.68-.1-.43,0-.59A1.73,1.73,0,0,0,73,51a1.55,1.55,0,0,0,0-.49c-.06-.16-.16-.56-.16-.56s-.16,0-.15.16.25.56.19.77m-6.14-32c.15.23.69,1.08.78,1.29s.32.23.33.55-.09.27.09.41.09.18,0,.26a.3.3,0,0,0,.09.39,1.21,1.21,0,0,1,.39.52c0,.12,0,.15-.15.18s-.17.24,0,.44.12.12.09.35a.69.69,0,0,0,.18.47s.27.38.33.26a.91.91,0,0,0,0-.41c0-.15.26-.15.26,0s.09.09,0,.33,0,.24,0,.35a2.2,2.2,0,0,0,.25.47,4.39,4.39,0,0,0,.59.64c.21.14.35.05.18-.15a3.14,3.14,0,0,1-.36-.67c-.12-.21-.1-.41.08-.18s.36.35.24.06a2.14,2.14,0,0,0-.4-.76c-.23-.26-.3-.67-.09-.44s.39.49.45.34,0-.26,0-.47,0-.26-.21-.43-1.2-1.55-1.34-1.75-.66-.79-.81-1-.15-.41-.24-.56l-.45-.7c-.09-.14-.15-.2-.33-.43a5.49,5.49,0,0,0-.72-.91l-1-.81c.21.26.66,1,.93,1.31s.57.85.72,1.08m2.64,23a1.35,1.35,0,0,0,.07.35.71.71,0,0,1,.09.36c0,.16.16.19.19.1a1.76,1.76,0,0,0,0-.41,2.3,2.3,0,0,1,0-.46c0-.16.12-.28.15-.44A1.84,1.84,0,0,0,70,40.8a2.85,2.85,0,0,1,0-.4l-.12-.06a.91.91,0,0,1-.21.44c-.13.12-.25.22-.18.34s.15.21.06.37-.15.25-.12.34m-.62-1.36,0,0L69,40.1a1,1,0,0,0,.08-.3l0,.14a5.67,5.67,0,0,1-.47.77,1.34,1.34,0,0,0-.2.6c0-.07,0-.13.07-.21s.23-.26.32-.47v-.16m.63,14.71c.19-.07.15-.13.27-.23l.25-.19a1.53,1.53,0,0,0,.34-.34,5.5,5.5,0,0,0,.58-.76.55.55,0,0,1,.31-.31c.15-.1.18-.28.4-.5v-.31a.12.12,0,0,0-.19,0,.73.73,0,0,0-.27.28,2.77,2.77,0,0,1-.34.44,1.6,1.6,0,0,0-.24.44c-.09.18-.22.22-.37.41s-.24.15-.37.31-.18.16-.24.25a3.07,3.07,0,0,1-.28.35c-.09.09,0,.25.16.19m3.18-6.85a4.53,4.53,0,0,1-.23-.62c0-.1-.09-.75-.13-.87a9.21,9.21,0,0,1,.05-1.24c0-.26,0-.41.12-.6a1,1,0,0,0,.08-.56,3.85,3.85,0,0,0,0-1,1,1,0,0,1,0-.69l.06-.22c-.16-.06-.25-.06-.34.1a.79.79,0,0,0-.09.47c0,.15-.08,1-.05,1.27s-.12.41,0,.72.1.53,0,.5-.21-.15-.21.18a7.24,7.24,0,0,0,0,1.16,3.81,3.81,0,0,1,.23.62,1.06,1.06,0,0,1,0,.31,7.79,7.79,0,0,0,0,.84c0,.12-.21.37-.12.56a1.15,1.15,0,0,1,.07.56c0,.12.07.18.13-.1a2.2,2.2,0,0,0,.14-.72c0-.18,0-.49.09-.46s.22.34.23.46-.07.22,0,.37.16.5.19.4a1.05,1.05,0,0,0,0-.59c-.06-.27,0-.71-.1-.86m-.65-15.6a2.42,2.42,0,0,1,.1.36c0-.06-.06-.21-.1-.36m-.06-.18h0a2.49,2.49,0,0,0-.11-.23l.07.16a.19.19,0,0,1,0,.07m.21,2.72a1.5,1.5,0,0,0,0,.37,4.47,4.47,0,0,1,0,.69,2.75,2.75,0,0,0,0,.59,1.31,1.31,0,0,1,0,.37.87.87,0,0,0,.1.37,4.15,4.15,0,0,0,0-.55c0-.16.09-.66.09-.81s0-.66,0-.81a3.7,3.7,0,0,1,0-.59,2.33,2.33,0,0,0,.12-.63,3.14,3.14,0,0,0-.07-.59c-.12.19-.09,0-.12.28a2.13,2.13,0,0,1,0,.44c-.07.19-.1.22-.06.37s-.13.28-.12.5M70,25.49a1.94,1.94,0,0,1-.29-.26c-.09-.09-.27-.3-.36-.41l-.36-.5c-.21-.11-.33-.11-.15.09a4,4,0,0,1,.54.7c.09.21.22.53.33.56s.27.23.33.35a2.71,2.71,0,0,0,.3.37c.12.15.12.3.24.44s.27.23.35.17-.09-.11-.18-.32a7.06,7.06,0,0,0-.35-.67c-.13-.17-.25-.44-.4-.52m-.88,13.82c0-.15,0-.36,0-.49s.15-.44.15-.59.15-.22.24-.25.22.12.25.21a1.71,1.71,0,0,1,0,.5,3.89,3.89,0,0,0,0,1.31c.13.18.16-.13.15-.38s.06-.84.09-1.06a.7.7,0,0,1,.18-.46,4.54,4.54,0,0,1,.27-.42c.16-.15.16-.15.18-.24s-.06-.38.06-.47.19.12.31,0a1.49,1.49,0,0,1,.31-.34c.12-.1-.07-.38-.13-.5a.17.17,0,0,1,.15-.25c.13,0,.09-.44.15-.56a5.27,5.27,0,0,0,.17-1,2,2,0,0,1,.31-.78.51.51,0,0,0,0-.33l-4,1.56Zm3,13.9c0,.22,0,.37,0,.47s-.09.37.09.27.12-.27.22-.37a1.46,1.46,0,0,1,.21-.16c.09-.06.16-.28,0-.31s-.28.13-.28-.06a2,2,0,0,0,0-.62c-.06-.09-.22-.21-.1-.43a.79.79,0,0,0,.12-.32c-.06-.09-.25-.33-.25-.33a1,1,0,0,0,0,.37c0,.15,0,.47,0,.56s-.06.25.1.34.07.34.07.34-.16,0-.16.25M56.5,69.11c.1.09.17-.07.2.13s0,.36.1.36.17,0,.3,0a.63.63,0,0,1,.37-.07c.16,0,.27,0,.3-.21s.13-.36.16-.54a.77.77,0,0,1,.25-.53c.2-.13.1-.33.23-.47a1.26,1.26,0,0,0,.16-.57s.16-.36.2-.1.14.3.17.1.06-.4.09-.53.16-.34.13-.5-.14-.27-.27-.23-.13.2-.23.33a1.28,1.28,0,0,1-.23.24,1.75,1.75,0,0,1,.06-.4c.07-.24,0-.17.07-.33s-.11-.07,0-.31.07-.2,0-.3-.24-.12-.24-.26a.47.47,0,0,1,.06-.33c.1-.17.3-.34.33-.5a5.88,5.88,0,0,0,0-.77c0-.1-.07,0-.17-.06s0-.1.16-.31,0-.49-.1-.32-.23.13-.14-.07a.27.27,0,0,0-.07-.33,2.06,2.06,0,0,0,0-.33c0-.17.16-.24,0-.34s-.24,0-.24-.16a.79.79,0,0,1,0-.37,2.07,2.07,0,0,0,.1-.33c0-.14.06-.2,0-.33s0-.3-.14-.44-.17,0-.1-.29a.5.5,0,0,0,0-.4s0-.4-.07-.53,0-.43,0-.54,0-.33-.08-.4a1.48,1.48,0,0,0-.4-.09c-.07-.26,0-.16-.17-.33s-.23-.29-.4-.09-.26.17-.29.6-.08,1.3-.08,1.3c.27.46.57.72.44,1a1,1,0,0,0-.12.67,3.09,3.09,0,0,0,.07.67c.07.13.17.19.07.36a7.21,7.21,0,0,0-.12.77,1.44,1.44,0,0,0-.12.8,4.6,4.6,0,0,1,.2.73c0,.17.08.63,0,.8s-.17.27-.1.4a.45.45,0,0,1,0,.5,1,1,0,0,0-.13.63,1.24,1.24,0,0,1,0,.5,1.83,1.83,0,0,0,0,.53c0,.34-.19.74-.09,1s0,.5.11.6M49.25,56.82c0,.17.08.36.27.14s.31-.17.45-.39a3.82,3.82,0,0,0,.2-.38c.08-.12.15-.08.22-.34a3.2,3.2,0,0,0,.14-.48c0-.17,0-.43,0-.5h0v0h0a3.52,3.52,0,0,0-.21-.52c-.1-.17-.15-.21-.25-.38s.17-.24,0-.41a.82.82,0,0,1-.27-.52,3.1,3.1,0,0,0,0-.41.68.68,0,0,0-.12-.19c-.15.1-.31.08-.36.23s-.12.21,0,.42.17.26,0,.34-.17,0-.14.31.1.67-.09.72-.23.19-.18.36a1,1,0,0,1,0,.55c0,.19.12.29.17.43a2.05,2.05,0,0,1,0,.55h0c.07.19.11.32.16.49m11.1,14.7c.17-.07.07-.23.3-.1s.44.16.37,0,0-.16-.2-.19a.39.39,0,0,1-.31-.27,1.81,1.81,0,0,0-.33-.19c-.2-.1-.3,0-.3,0a.26.26,0,0,0-.2-.1c-.14,0-.1.07-.27,0l-.16,0c-.3,0-.27,0-.34-.1s-.13-.06-.1-.23.06-.2-.14-.2-.3-.19-.43-.12-.1.09-.26.13,0,.23-.17,0-.2-.37-.37-.16,0,.36-.13.43-.13.07-.16.23a1.33,1.33,0,0,0,0,.3c0,.1.13.17.07.34s-.16.26,0,.29.16,0,.33.13.1.17.34.1.36-.17.36.06-.19.17.14.27.23-.14.33.09.14.1.3.16.21.27.34.26.37,0,.3.17,0,.1.11.11c-.23,0-.48,0-.34.16s.31.26.47.19.17-.14.3-.14.36,0,.43-.1.13-.07.16-.23,0-.27-.17-.17-.23-.1-.43-.1-.33-.06-.2-.19.33-.24.39-.34.07-.13-.06-.23-.14-.2,0-.27m8.49-13.84c-.07-.13-.11-.13-.14-.3l-.07-.33-.14-.17c-.2-.06-.3-.09-.36.17a.85.85,0,0,1-.32.51c-.21.2-.27.4-.43.54s-.07.13-.23.23-.27.24-.16.33.26.23.1.27-.23.07-.26.17,0,.17-.17.2a.72.72,0,0,0-.43.2c-.13.14-.1.21-.26.21s-.14-.07-.3.13-.16.31-.33.41a.48.48,0,0,0-.26.37c0,.13,0,.23-.17.23s-.16.24-.16.24,0,.13-.26.13a2.55,2.55,0,0,0-.5,0c-.17,0-.26.27-.36.4s-.27.21-.26.34a.41.41,0,0,1-.17.37c-.16.16-.19.33-.29.3a.39.39,0,0,1-.2-.33c0-.13,0-.17-.24-.13a.63.63,0,0,0-.46.33c-.17.24,0,.47-.19.51s-.2.07-.33.27a1.13,1.13,0,0,0-.26.7c0,.2.1.4,0,.53s-.13.24-.16.47a1.06,1.06,0,0,1-.13.47c-.06.1.1.17.2,0s-.1-.23.1-.13.24.22.1.33a.78.78,0,0,0-.29.5,2.41,2.41,0,0,1-.09.67c-.06.13,0,.5.07.46a.83.83,0,0,1,.27,0c.07,0,.16,0,.24,0s0,0,0,0c0,.26.27.3.27.3s.07.16.2.09.24.07.33,0,.1-.07.27,0,.07.14.17.2.24.3.3.2a1.29,1.29,0,0,1,.2-.3c.13-.14.26,0,.39-.21s.2-.47.37-.57a.49.49,0,0,1,.36-.1c.16,0,.26-.27.26-.37s0-.1,0-.23.16-.17.36-.31a.73.73,0,0,0,.36-.47c0-.13,0-.53.12-.66s.24-.08.3-.37.06-.57.29-.67.67,0,.66-.24,0-.37-.07-.47a.86.86,0,0,1-.14-.56,2.15,2.15,0,0,0,.23-.51,1.34,1.34,0,0,1,.09-.4,1.57,1.57,0,0,0,.1-.23c.06-.17,0-.33,0-.47s.06,0,.23-.2.29-.34.19-.43.06-.34.06-.34a.35.35,0,0,1,.3,0c.14.06.17,0,.24-.07s.16,0,.19-.17a1,1,0,0,0,0-.4s.17-.2.34-.17.23,0,.23-.1.19-.08.13-.27-.1.07-.07-.2,0-.23-.11-.33.07-.14,0-.27-.23-.13-.07-.23.34,0,.27-.1M73,54.88a6.68,6.68,0,0,0-.16-.84c-.12.16,0,.35,0,.53s0,.34-.08.47-.19.31-.28.28a1.46,1.46,0,0,1-.25-.12l-.09.41a.23.23,0,0,1-.18.09c-.13,0-.1.07-.22.19s-.34.28-.34.38,0,.28-.12.28-.12.19-.12.19.16.21.28,0a1.16,1.16,0,0,1,.24-.25c.13-.09.28-.22.38-.19s.09.1.22.16.21.05.06.31-.37.44-.36.69-.06.46,0,.53.07.24.16.24.28,0,.25.13-.21.31-.06.25a2.54,2.54,0,0,0,.34-.23c.16-.09.22-.28.15-.37a1.73,1.73,0,0,1-.09-.56,3.11,3.11,0,0,1,.08-.53c0-.19.16-.1.18-.44a2.19,2.19,0,0,0,0-.47c0-.12.24-.62.11-.72s-.1-.27-.1-.46m-22.3-9.31c.05-.22.32,0,.37-.17s0-.16.27-.38.48.1.48-.27,0-.22.26-.6.16-.32.53-.38.16-.17.32-.38.21,0,.43-.22.21-.54.36-.71a5.16,5.16,0,0,1,.59-.75c.32-.28.21-.49.69-.61s.26-.27.64-.54.58-.54.58-.76,0-.48,0-.7.27-.49.43-.43.48-.55.64-.23.33.43.49.21a1.15,1.15,0,0,1,.69-.49c.32-.06.75-.17.8-.49s-.22-.65.05-.76.43-.22.59.05a1.9,1.9,0,0,1,.38.75c.06.32.28.58.23,1a1.44,1.44,0,0,0,.12.81c.11.37.22.8.22.8s.33.27.49,0a.35.35,0,0,1,.26-.19h0L66,34.77,32.78,29.63a4.49,4.49,0,0,1,.17.94c0,.43.34.8.67,1.55a2.11,2.11,0,0,0,1,1.12c.22.1.38-.28.64-.5s.31-.81.64-.33a1.8,1.8,0,0,1,.39,1.24c0,.32-.31.64.55.69a3.56,3.56,0,0,0,1-.07c.27,0,.16-.16.49,0a1.2,1.2,0,0,0,.91.15c.16-.06.38.1.48-.06s-.05-.27.33-.27.53-.06.85-.07.43-.11.54.21a1.24,1.24,0,0,0,.34.64c.32.43.06.54.6,1s.16.48.39,1,.49.53.81.47a.75.75,0,0,0,.59-.38c.21-.27.06.7-.37.81s-1,.23-.69.71a3.91,3.91,0,0,1,.5,1.12c.11.32.54.43.54.43a1.89,1.89,0,0,1,.37-.49c.26-.28.69-.44.69-.82s.09-1.18.26-.76a1.39,1.39,0,0,1,0,1c-.11.32.33.59.06.75s-.21.43-.26.76a2.15,2.15,0,0,0,0,.86c.06.43.22.64.06.8s0,.49,0,.49,0,0,0,.53l0,1.45a5,5,0,0,0,.13,1.24,5.77,5.77,0,0,1,.22.91c.12.65.07.86.13,1.29A8.4,8.4,0,0,0,46,49.28a7.07,7.07,0,0,0,.38.86c.17.37.07,1,.34,1.18s-.15.53.07.69.15-.11,0,.33.06.32.17.58a1.42,1.42,0,0,1,.23.7c0,.38.11.81.38.59a3,3,0,0,0,.53-.65c.15-.22.27.1.37-.22a2.84,2.84,0,0,1,.48-.81c.15-.22.53-.39.52-.66a3,3,0,0,0-.06-1c-.11-.16,0-.48.2-.75s.38-.33.43-.55.09-1-.12-.64-.21.17-.11-.27.26-.54.16-.75.2-.49.2-.49a.82.82,0,0,0-.11-.53c-.17-.27-.44-.64,0-.92s.54-.17.59-.38m8.74,28.22c-.2,0-.28.14-.24.34s.2,0,.45-.09.12-.17.24-.37h-.12c-.12,0-.12.12-.33.12m2.33-32.15c0-.08,0-.16,0-.26l0,.26m0-.31s0,0,0,.05,0-.16,0-.25,0,.12,0,.2m0-.59c-.1-.17-.13-.28-.06-.41-.11.22,0,.27.06.41M34.15,15.89c.12.2-.15.2.05.35s-.08.24-.16.44-.27.12-.43.12-.19.32-.19.08-.05-.31-.28-.31-.17,0-.31-.14L31,18.23a4.13,4.13,0,0,0,.17.45c.08.19.15-.12.15-.36s0-.15.2-.12.28.35.48.55a.52.52,0,0,1,.2.47.47.47,0,0,1-.12.31,1,1,0,0,1-.39-.31c-.44-.31-.24.16-.15.32s0,.47.16.47.35-.05.31.07a.48.48,0,0,0,.08.44c.13.11.09.31.21.27s.27.38.32.58c-.16-.16-.12.08,0,.28s0,.19,0,.39.16.23.24.51-.12.31-.28.28-.19.08-.47.12-.43-.11-.66-.27-.13-.19-.32-.31-.28,0-.44,0-.28-.35-.4-.59a2.29,2.29,0,0,1-.24-.94,8.32,8.32,0,0,0,.06-1.37.49.49,0,0,0-.12-.25L24.6,24.31a.89.89,0,0,0,.11.26c.08.12,0,.35-.07.51a2.09,2.09,0,0,0,0,.75.68.68,0,0,1-.12.51.66.66,0,0,0-.07.59.06.06,0,0,1,0,.06L66,33.42,48.17,1.74l-.34.32a1.18,1.18,0,0,1,.14.22c.12.24.44.39.56.59s.24.19.16.43.08.31.08.31A.72.72,0,0,1,49,4c0,.16.15.16,0,.28s-.12.11,0,.23.2.16.12.35-.19.2-.19.4,0,.23.16.35,0,.2,0,.51,0,.39-.31.36S48.37,6,48.53,6s-.05-.83-.09-1a2.2,2.2,0,0,1-.21-.63c0-.27-.16-.31-.16-.51a1.56,1.56,0,0,0-.16-.62,1.81,1.81,0,0,1-.25-.67,1.31,1.31,0,0,0-.09-.28L33.82,15.48a4.54,4.54,0,0,1,.33.41m4.56-2.43c.07-.38,0-.17.32-.39s.24-.21.45-.25a3.61,3.61,0,0,0,.6-.18c.32-.11.1-.18.24-.22s.07-.18.18-.35.25.13.35.35l0,.17a.18.18,0,0,0-.17.15c0,.14-.18.21-.43.21s-.24.07-.45.15a2.92,2.92,0,0,0-.35.15c-.11,0-.11.1-.18.31s0,.25-.1.29-.1.28-.06.46a4,4,0,0,1,.22.63c0,.28-.14-.07-.33-.31a5.11,5.11,0,0,1-.35-.46c-.08-.14,0-.32.09-.71m-20.83,13c-.19.12-.23.19-.41.31s-.31,0-.54.24-.34.12-.37.34,0,.5.19.3a3.4,3.4,0,0,0,.38-.38c.19-.23.22-.31.41-.35s.54,0,.57-.19.3-.32.42-.47l.07-.07-.19-.16a3.22,3.22,0,0,1-.53.43M68.25,41.54l-1.32-5.78L61.79,42a.81.81,0,0,0,0-.15v.35a3.16,3.16,0,0,1-.43,1.48c-.25.46-1,.88-.81,1.24s-.14.56.16.6.82,0,.87-.31.29-.46.44-.72-.26-1,.31-.46c0,.23,0,.41.09.46s0,.06-.09.24,0,.18.15.2.09.12-.08.27-.26.73-.29.91a2.05,2.05,0,0,1-.17.74c-.11.14,0,.53-.13.7s-.44.63-.26.71.32,0,.18.2a3.15,3.15,0,0,0-.29.8c-.08.26-.1.79-.25,1s-.2.3-.17.41.12.36,0,.47,0,.3-.23.57a1.72,1.72,0,0,0-.37.62c0,.14-.18.06-.15.32a.55.55,0,0,1-.17.56,2.41,2.41,0,0,0-.34.74,1.28,1.28,0,0,0-.11.64v.71c0,.12.06.44.07.62a2.49,2.49,0,0,1-.12.53,1.2,1.2,0,0,0,0,.32,1.89,1.89,0,0,1-.23.73c-.11.27-.08.62-.17.77a2.77,2.77,0,0,0-.13.65,3.42,3.42,0,0,1-.2.59,1.27,1.27,0,0,0-.11.59,1.55,1.55,0,0,1,0,.61,1.22,1.22,0,0,0,0,.59.53.53,0,0,0,.15.38c.09.09.2.14.18.32s-.06.35.06.35.15,0,.32-.12a.55.55,0,0,0,.26-.38,3.81,3.81,0,0,0,.08-.8,3.39,3.39,0,0,1,.34-1c.11-.18.29-.62.4-.86a1.45,1.45,0,0,0,.16-.88c-.06-.29.06-.65,0-.88a2.49,2.49,0,0,1-.09-.46c0-.24-.07-.65-.07-.77s0,0-.12-.21-.24-.61-.13-.81.26-.27.23-.54,0-.44,0-.73a1,1,0,0,1,.17-.65,1.59,1.59,0,0,0,.17-.59c.06-.14.29-.35.35-.59a6.33,6.33,0,0,1,.4-.91c.11-.27.23-.3.31-.56s.32-.74.37-1a3.28,3.28,0,0,1,.11-.53c.09-.17.09-.21.24-.23s.34-.13.23.17-.28.88-.05.79.32-.15.3.12a2.68,2.68,0,0,0,0,.84c.06.18.15.3.06.48a1.11,1.11,0,0,0,0,.67c.06.09.21.06.15.21s-.12.32,0,.35.17.2.06.38a6.1,6.1,0,0,0-.34.86s-.32.82,0,.87a3.7,3.7,0,0,0,.58-.65c.17-.21.14-.29.26-.38s.29,0,.35-.21,0-.38.05-.5.2-.15.38-.16.44,0,.53-.12a1.63,1.63,0,0,1,.52-.53c.2-.09.23-.27.31-.39s0,0,.21-.18a1.64,1.64,0,0,0,.43-.44,1.77,1.77,0,0,0,.29-.45.92.92,0,0,0,.12-.44c0-.23.08-.21.25-.42a.48.48,0,0,0,.17-.46,5.26,5.26,0,0,1,.08-.83c.06-.26.17-.26.23-.5a5.37,5.37,0,0,1,.16-.82c.12-.27.21-.38.17-.53s-.17,0-.18-.23.15-.39.2-.62a1,1,0,0,0,0-.59.9.9,0,0,1,0-.73c.14-.21,0-.59,0-.59s-.06,0-.12-.17a2.16,2.16,0,0,1,0-.62,1.32,1.32,0,0,0,.09-.47c0-.27-.1-.65.13-.91l.1-.13m2,27c-.16-.08-.32-.16-.4,0s-.33.25-.21.37.17.17.29,0,.12-.08.25,0,0,0,.25,0,0-.2.24,0,.13.49.21.2.12-.45.12-.45c-.17-.12-.17-.16-.38-.16s-.2.08-.37,0M32.72,47.58s-.27.05-.24.12a.36.36,0,0,0,.22.26.34.34,0,0,0,.38-.1.44.44,0,0,0,0-.26ZM63,73.42a3.42,3.42,0,0,1-.61.22,2.79,2.79,0,0,0-.77.21,2.55,2.55,0,0,1-.66.22,3.38,3.38,0,0,1-.69.17c-.17,0-.21-.12-.46,0s-.48.34-.28.33a2,2,0,0,0,.78-.17c.33-.12.82-.13,1.06-.26a5.66,5.66,0,0,1,.74-.21c.41-.13.41,0,.74-.17s.36-.09.69-.18l.74-.17,0-.12c-.37,0-.25.08-.58.09s-.45-.12-.74,0M62,75.7c-.21.2-.16.32-.45.32s-.12.17-.41,0-.05-.49-.5-.15-.36.41-.77.45a1.34,1.34,0,0,0-.74.22c-.16.12,0,.08-.45.17a2.54,2.54,0,0,0-.61.21c-.2.08-.61.21-.61.21a.75.75,0,0,1-.45.13c-.29,0-.36.25-.29,0s0-.08.25-.32.57-.17.36-.34-.17-.28-.49-.07a6,6,0,0,1-1.06.5c-.37.13-.33.13-.9.3a6.09,6.09,0,0,1-.94.21c-.21,0-.33,0-.62.09s0,.09-.41.17-.16,0-.57.22a1.74,1.74,0,0,1-.77.25c-.29,0-.49.33-.9.42a2.88,2.88,0,0,0-.69.17,2.71,2.71,0,0,1-.9.26,5,5,0,0,1-1,.1c-.45,0-.57-.08-.78.09a.79.79,0,0,1-.61.29c-.41.05-.37-.08-.69.17s0,0-.29.05a2.76,2.76,0,0,0-.73.21,4.49,4.49,0,0,0-.58.26c-.16.08.41-.54-.12-.33a2.6,2.6,0,0,0-.82.5,1,1,0,0,1-.49.3c-.36.12-.61.37-.93.5s-.33,0-.66.21a5.34,5.34,0,0,0-.65.38c-.24.17-.57.29-.94.54s0,.17-.56.5a4.9,4.9,0,0,1-1.06.55c-.49.21.12.24-.57.5s-.69.38-1.1.5a5,5,0,0,0-.78.22c-.24.12-.85.71.29.36s.49-.13.82,0a2.93,2.93,0,0,0,.87.08c.41,0,.2.11.69,0a3.53,3.53,0,0,1,.86-.18c.66-.09.78-.21,1.07-.22a2,2,0,0,0,.61-.13l21.8-8.26a1.37,1.37,0,0,0-.3-.57c-.12-.12-.2-.16-.4,0M35,42.18c.16-.39.27-.66.59-.72s.22-.33.21-.55a2.16,2.16,0,0,1,.43-1.15,4.89,4.89,0,0,0,.53-1c.16-.33.48-.77.47-1a2.37,2.37,0,0,0-.39-1c-.22-.32,0-.49-.23-.6s-.27-.1-.49-.48-.39-.43-.44-.7-.17-.16-.18-.65.05-.71-.37-.11a4.51,4.51,0,0,1-.81.88,2.22,2.22,0,0,1-.65.5s.05-.54-.28-.43,0,.49-.32.11-.44-.16-.39-.7,0,.05.05-.54-.06-.49-.33,0-.44,0-.38-.32A5.3,5.3,0,0,0,32,33a1.19,1.19,0,0,0-.28-.7c-.17-.22-.06-.22-.12-.65s-.22-.38-.22-.76.15-.6-.07-.87a.54.54,0,0,1-.13-.59l-9.46-1.46,1.84,4.85a6.77,6.77,0,0,0,0-1.07,5.14,5.14,0,0,0-.18-1.14c-.05-.27-.45-1.25-.17-1s.6.16.5.6,0,1,.17.81.21-.6.38-.22a3.92,3.92,0,0,1,.28,1.08c.06.38.17.54.23.93a6.26,6.26,0,0,1,.07.92c0,.33-.16.76.17,1s.66.27.56.7a6.88,6.88,0,0,0-.2,1.64c0,.16,0,.37,0,.59l3.33,8.77a2,2,0,0,0,.23-.1c.54-.27.71-.11,1-.39s.49-.39.7-.55.22-.06.76-.34.49,0,.54-.44,0-1.09.69-1.1.6-.06.76-.28.05-.11.38-.33.48-.44.7-.44.27.15.43-.22M26.49,46.9a1.63,1.63,0,0,0,.77-.11l.22-.1-1.09-2.87c-.07.2-.13.39-.2.64a5.57,5.57,0,0,0-.25,1.31c-.05.49.16.43.06.81s.11.33.49.32m3.58,5h0Zm.74-3.74c-.19-.09-.24.17-.38.24s-.12.15-.35.18a1.34,1.34,0,0,1-.51-.07h0l.84,2.23h0l.07-.09c.17-.14.16-.45.19-.62s.08-.7.1-.89a.89.89,0,0,1,.19-.5.31.31,0,0,0-.15-.48M69,68.39c-.16-.12-.16-.29-.28,0s-.37.33-.12.46.29.16.41.11a.72.72,0,0,0,.24-.17l0-.2c-.08-.16,0,0-.21-.16m3-4.2c.13-.2.29-.23.09-.3s-.26,0-.27-.23a.44.44,0,0,1,.13-.4c.13-.14,0-.26.17-.33s.16.06.29.06.24,0,.27-.27a2,2,0,0,1,.09-.43l-.17-.13c-.22.27-.09.53-.29.53s-.5-.09-.56.21-.1.5-.29.63-.3.37-.26.47a.8.8,0,0,1-.1.5,2.11,2.11,0,0,0-.13.4s.1-.26.27-.17.33.27.37.07a1.55,1.55,0,0,1,.19-.44c0-.1.06,0,.2-.17m3.68,4.38c-.07-.13-.14-.06-.24-.16s0-.1,0-.3,0-.33-.11-.47-.2-.33-.3-.12,0,.26-.2.43a.73.73,0,0,0-.22.37c-.07.17-.23.47-.4.54s-.09.16-.36.23-.33.18-.33,0,.06-.24.13-.44,0-.23-.11-.36-.07-.17,0-.37a3.12,3.12,0,0,1,.25-.54,4.67,4.67,0,0,1,.27-.5c.13-.2.16-.3.06-.4s0-.26-.17-.33-.1,0-.27-.06l-.17,0c-.1-.17-.17-.27-.33,0s-.1.33-.33.34h-.43c-.17,0,0,.17-.17.17s-.36,0-.29.13a.38.38,0,0,0,.23.27c.1,0-.06.07-.06.2a.18.18,0,0,0,.27.16c.13-.07.33-.07.2.13s-.16.4,0,.37.43-.24.43,0,.07.27-.13.3,0,.17-.3.17-.2-.13-.4,0-.06.2-.06.37a2.63,2.63,0,0,1-.06.43.36.36,0,0,1,.13.2c0,.13.14.2.24.13s.06,0,.17.13.23.16.2.33-.13.37,0,.37.26-.18.3.06.1.13.2.19.13,0,.27.2.14.26.14.36v.27h1.8L76,69.2s-.18-.49-.24-.63m-6-4.45c0-.1.07,0,.23-.24s.13-.13.2-.3.13-.1.1-.3l0-.2c-.16.14-.2.31-.33.41s-.16.33-.43.33a3.48,3.48,0,0,0-.53,0,1.2,1.2,0,0,1-.36.08c-.2,0-.34,0-.4-.14a.38.38,0,0,1,0-.33c0-.1.1-.16-.17,0a4.28,4.28,0,0,1-.46.24c-.16.07-.39.2-.43.31a1.53,1.53,0,0,1-.32.43.42.42,0,0,0-.17.37c0,.17.14.23,0,.33a1.12,1.12,0,0,0-.47.51,2,2,0,0,1-.22.5,4.52,4.52,0,0,0-.29.5c-.13.24-.23.34-.33.5s-.07.17-.16.34-.17.17-.16.34.06.23-.07.33-.09.23.07.23.17.16,0,.3-.07.37-.26.43-.2,0-.3.21a1.35,1.35,0,0,0-.16.43c0,.13-.13.17-.16.34s-.16.3,0,.36.33.2.43.07.39-.61.52-.81a1.78,1.78,0,0,0,.23-.57c0-.13.19-.33.23-.5s.12-.4.26-.44.2.13.13.27a.63.63,0,0,0-.06.4.42.42,0,0,1-.09.43.57.57,0,0,0-.2.4c0,.14,0,.3.14.3a.29.29,0,0,0,.3-.17c.06-.13.09-.33.23-.27s.23.27.07.3-.3.07-.3.17a2.85,2.85,0,0,0,0,.33c0,.24,0,.37.14.37s.13-.14.23-.3.06-.27.16-.37a.45.45,0,0,0,.16-.3c0-.1.1-.17,0-.24s-.09,0-.07-.23a3.78,3.78,0,0,1,.1-.46s0-.27.1-.37,0-.3,0-.3a.83.83,0,0,1,0-.3c0-.17.1-.2.06-.4a.65.65,0,0,0-.21-.36c-.06-.1-.07-.34.14-.34s.29.06.46.06.13-.16.3-.2.13.13.23.09.24,0,.17-.2-.17-.26,0-.36.2-.1.26-.3-.23-.3-.23-.3a.58.58,0,0,1-.24,0c-.1,0-.2-.16-.26,0s-.07.3-.23.3-.17,0-.2-.1,0-.06,0-.23a.32.32,0,0,1,0-.33,3.61,3.61,0,0,1,.23-.44c.06-.13.16-.37.32-.37a3.26,3.26,0,0,1,.54,0,.88.88,0,0,1,.43.16c.2.13.47.19.6.09s.23-.07.37-.2.29-.24.32-.34m1.32-6.6a.57.57,0,0,0,.06-.25c-.13-.09-.31-.09-.28.06s.16.28.22.19M11.39,18.61c0-.34.11,0,.23,0s.11-.11.11-.26-.12-.23.07-.42.11-.2,0-.42,0-.16-.26-.11-.2-.12-.16-.34,0-.27.15-.42a1,1,0,0,0,.25-.62,6.73,6.73,0,0,1,0-.72c.08-.38.12-.12.23,0a1.83,1.83,0,0,1,.38.22c.2.15.05.23,0,.5a1.7,1.7,0,0,0-.11.46c0,.15,0,.41.31.41s.16-.08.23,0,.24.26.38.1a.67.67,0,0,0,.23-.38c.07-.23.3-.12.45-.16a1.11,1.11,0,0,1,.38,0c.19,0,.35,0,.31.15s-.3.15-.3.15l-.15.35a.45.45,0,0,0-.19-.19c-.12,0-.3.08-.53.2s-.23.46-.19.57,0,0,.19.15-.26.27-.26.27a.37.37,0,0,1-.12-.38c.07-.23-.26.12-.22.23a2.14,2.14,0,0,1,.12.54c0,.15.12.53,0,.45s-.23,0-.19.12a.46.46,0,0,1-.18.46l-.16,0L17,23.22c.17-.07.23,0,.52-.11s.15,0,.53.07,0,.42.35.41.23.07.15.23-.11.19.19.26.2.08.31.26.23.15.54,0,.26,0,.68.1.38.12.61.11.31,0,.31-.27.11-.19.33-.31.27,0,.58.07.38.07.64-.12,0,0,.3-.12.19,0,.49-.39c.16-.18.22-.19.27-.19l4.81-4.61a2,2,0,0,1-.53-.09,1.6,1.6,0,0,0-.57,0c-.3,0-.23,0-.42-.26s-.27-.07-.53.12-.31.08-.5-.3-.23-.18,0-.38.15-.3.45-.57a5.27,5.27,0,0,0,.45-.39c.23-.23.23,0,.5,0a.62.62,0,0,0,.38-.12,4.07,4.07,0,0,1,.76-.13,3.72,3.72,0,0,0,.65-.08.74.74,0,0,1,.49,0c.23.07.34.11.27.23s-.34.15-.49.19a1.21,1.21,0,0,0-.46.16c-.19.12-.19.19-.34.31s-.22.34,0,.34a1.3,1.3,0,0,0,.42,0,1,1,0,0,1,.41.07l2.52-2.41a.19.19,0,0,1,0-.1c0-.06,0,0,.13,0l.29-.27a1.6,1.6,0,0,0,.1-.23c0-.1.11-.12.26-.12L46.58,1.43,10.85,15a2.5,2.5,0,0,0-.11.58c0,.22-.07.23-.22.53a2,2,0,0,1-.26.46c-.11.15,0,.31-.26.5a1,1,0,0,0-.23.27l1.63,1.32s0,0,0-.05M18,21.52a.3.3,0,0,0-.06-.28.57.57,0,0,1,.05-.47,2.74,2.74,0,0,0,.19-.34c.06-.14.2-.12.43-.11a.81.81,0,0,0,.46-.06.85.85,0,0,1,.35-.1c.31-.07.1-.08.22-.22s.09-.06.27-.07.12,0,.3-.11.06-.13.21-.27.21-.12.37-.2a2.64,2.64,0,0,0,.39-.26c.18-.12.18,0,.14.1l-.07.14c-.08.14-.08.08-.16.14s.06.06.26.07,0,.1,0,.2,0,.1-.14.12a1.42,1.42,0,0,1-.29,0c-.14,0-.16.1-.22.21a.38.38,0,0,1-.23.15c-.12.05-.14,0-.22-.09s-.26,0-.42,0-.09,0-.17.11,0,.08-.18.14-.12.1,0,.23.07,0,.31,0,.08,0,.24.12.16,0,.29,0,.1-.1.2-.24.15-.14.29-.26.24-.12.61-.22.2,0,.34,0a1.29,1.29,0,0,1,.25,0,3.74,3.74,0,0,0,.66,0,6,6,0,0,0,.9,0l.61,0a2.93,2.93,0,0,1,.44,0c.12,0,.14,0,.3.15s.12.08.16.24-.28.12-.35.22a1.27,1.27,0,0,1-.2.24c-.08.06-.18,0-.36,0a.4.4,0,0,0-.39.2c-.06.1,0,.12-.12.1H23.2l-.49,0c-.22,0-.22,0-.35.19s-.22,0-.3-.08-.3.06-.43,0a.68.68,0,0,0-.46.14c-.14.1-.29.06-.55.07s-.22,0-.25.14,0,.13-.42.34,0,.09-.19.22a.43.43,0,0,1-.35.1c-.14,0-.1,0-.22.08a.82.82,0,0,0-.27.1c-.14.08,0,.06.06.2s0,0,0,.12-.1.1-.24.06-.12,0-.18.1a.21.21,0,0,1-.23.1c-.1,0-.12-.06-.12-.11s.14-.12.24-.14.25,0,.31-.09-.06-.1-.06-.1a2,2,0,0,0-.48-.25c-.14,0-.11,0-.29-.09s-.13-.16-.14-.26.05-.18.13-.27,0-.11,0-.18M4.54,50.77c.16.26.32.36.27.57v0L18.94,28.7l-.51.36c-.57.42-.36.37-1.09.48s-.69-.09-1.1.27-.68.33-1,.59-.31.32-.83.74-1.24,1.6-.88,1.43.42-.32.11.21-.15.42-.62.69-.73.07-1,.38a.86.86,0,0,1-.78.43c-.47.06-.32-.1-.74,0s-.88.11-1,.38-.31.47-.63.32-.21-.31-.06-.68a1.56,1.56,0,0,0,.1-1c-.06-.26.15-.15.25-.42s-.41.16-.83.54a6.84,6.84,0,0,0-.88.74c-.31.37-.78.38-.88.69s0,.37-.36.53-.41.63-.67.8-.37-.1-.58.48A3.14,3.14,0,0,1,4,37.83l-1.94,13s.11.73.37,0c.26-.27.26,0,.42,0,.41-.06.63.1.67-.11s.16-.47.42-.32.42.1.58.36m3.62-19c0,.19-.11.5,0,.61s.27,0,.3-.12a2.25,2.25,0,0,1,.19-.38c.07-.15.22-.23.11-.5s-.16-.3-.12-.53a4.33,4.33,0,0,0,0-.68c-.11.15-.23,0-.23.26s-.26.39-.14.54.34.26.19.38a.51.51,0,0,0-.26.42m.41-10.36c0,.23,0,.3.19.07s.41-.42.45-.65a2.59,2.59,0,0,1,.26-.69c.11-.27.18-.61.33-.65a.37.37,0,0,0,.24-.2l-1-.84a.94.94,0,0,0-.2.41,1,1,0,0,1,0,.49c-.07.23-.14.54,0,.69s.31.33.16.53,0,.15-.07.34-.27.27-.26.5M4.88,36.28a2.48,2.48,0,0,1,.28-.65A1.57,1.57,0,0,0,5.31,35c0-.23,0-.26.19-.52s.26-.46.57-1a4.09,4.09,0,0,0,.54-1.27,1.27,1.27,0,0,1,.28-.69,3.49,3.49,0,0,1,.68-.49c.19-.1.09-.46.25-.62a2.42,2.42,0,0,0,.44-.62c.1-.19.26-.52.49-.49s.22.06.36.25.19.29.42.26a2.17,2.17,0,0,0,.68-.21c.16-.09.22-.19.45-.16s.45-.33.52-.07.16.42,0,.61-.23.55-.39.66-.38.46-.48.52-.45.17-.51.3-.23.32-.13.39.39,0,.49-.07a1.6,1.6,0,0,0,.42-.2c.09-.1.22-.14.25-.36a.74.74,0,0,1,.16-.49c.16-.23.28-.43.38-.56a3.81,3.81,0,0,0,.35-.65c.1-.23.29-.49.12-.62s-.36-.19-.2-.35.52-.23.65-.33.32-.3.25-.43-.1-.09-.32,0a5.08,5.08,0,0,1-.49.16c-.09,0,0-.06-.13-.16s-.26-.09-.29.14-.12.36-.25.36-.26.19-.36.13-.32-.09-.33-.25-.19-.07-.32,0-.29-.06-.29-.06.06-.68.21-.82a.55.55,0,0,1,.39-.16.38.38,0,0,0,.36-.14c.09-.13.25-.55.38-.29s.26.16.36.06.29-.26.48-.2.23,0,.39-.14a.76.76,0,0,1,.36-.16c.09,0,.28-.14.41-.17s.23.06.2.22a2.2,2.2,0,0,0-.09.43c0,.16.13.32.23.25s.25-.23.29-.13,0,.23.13.19a2.6,2.6,0,0,0,.39-.16s.22-.2.19.09,0,.1.13.19.07.1.1.23.2-.07.23.13.13.12.26,0,.23-.23.42-.4.35-.26.35-.46,0-.16.22-.36.45-.33.16-.36-.19-.12,0-.22a1.55,1.55,0,0,0,.45-.36c.09-.13-.1-.16.09-.33S17,25,17,24.93l-.17-.14-.47.2s-.09-.16-.23-.16a2.59,2.59,0,0,0-.35,0s-.29-.07.06-.33a2.16,2.16,0,0,1,.4-.23l-4.86-3.95-.16.22c-.16.23-.09.26-.29.42a4.28,4.28,0,0,0-.44.37.76.76,0,0,0-.26.52c0,.16.07.13-.12.3s-.13.51-.35.45-.3-.16-.11-.36.39-.42.29-.48a.37.37,0,0,1-.13-.2s-.26-.29,0-.32.16.09.29.16.26-.07.25-.3a.8.8,0,0,1,.13-.45.85.85,0,0,1,.22-.36A1.68,1.68,0,0,0,11,20l-.35-.29a.3.3,0,0,1,0,.07c-.25.36,0,.17-.12.39s-.13.36-.25.46-.49.33-.36.07.28-.65.28-.65L10,19.82s.06.1-.19.52a3.42,3.42,0,0,0-.51,1,3.47,3.47,0,0,0-.24,1,5,5,0,0,1,.07.56,3,3,0,0,1-.16.8,1.38,1.38,0,0,1-.18.62c-.19.33-.48.66-.57.89s0,.29-.16.48a6.11,6.11,0,0,0-.35.95c-.12.36-.54.55-.57.78s-.22.39-.25.75.07.32-.19.72-.57.52-.6.78a1,1,0,0,1-.19.65c-.16.17-.28.46-.38.52s-.13-.19-.13-.28a.59.59,0,0,1,0-.49,6.61,6.61,0,0,0,.36-.62c.12-.23.28-.39.41-.62s.38-.36.41-.75.28-.59.28-1-.23-.25-.23-.51-.33-.26-.24-.58a4.51,4.51,0,0,0,.12-.72,1.57,1.57,0,0,0,0-.58c0-.2.13-.2,0-.36a.82.82,0,0,0-.26-.22l-.87,5.42-.27,1.89s.26.25.39.25.13,0,.13.29.11.42,0,.68-.25.72-.38.78-.19.23-.29.23h-.1l-.58,3.11c.23,0,.59-.16.65-.49m66.66-4.37a.94.94,0,0,0-.14-.19c-.27-.32-.17-.42-.43-.89s-.22-.52-.48-1-.92-1.62-1-1.82-.42,0-.32-.32-.31-.41-.53-.88-.32-.47-.32-.31-.31-.21-.69-.78a22.94,22.94,0,0,0-2-2.34,8.23,8.23,0,0,1-1.22-1.71c-.11-.32,0-.32-.22-.63s-.06-.21-.06-.58a.5.5,0,0,0-.48-.52c-.27-.05-.37-.1-.32.17s-.26.21-.47-.16a1.93,1.93,0,0,0-.48-.67,4.13,4.13,0,0,1-.64-.94,1.08,1.08,0,0,1-.16-.63,2.89,2.89,0,0,0-.49-.88c-.27-.42.31-.11.48.05a.82.82,0,0,1,.21.46,2.91,2.91,0,0,0,.48.89c.22.26.37.05.32-.22s-.06-.41.15-.26.31,0,.42.15a3.31,3.31,0,0,0,.64,1c.37.31.33.58.64.89s.59.62,1,.93a7.48,7.48,0,0,1,1.12,1.56A3.07,3.07,0,0,0,67,23c.21.21.11.47.37.57s0-.42-.06-.73-.26-.31-.53-.89a8.94,8.94,0,0,0-.8-1.14,3.51,3.51,0,0,0-.8-.89c-.27-.2-.75-1-1.17-1.4s-.43-.52-.65-1.2c-.53-.94-.64-1.19-1-1.45s-.48-.73-.6-1.62c1,1,.74.25.42-.11a9.07,9.07,0,0,1-.91-1.62C61,12,60.07,10.4,60.07,10.4L49.9,2.1,67.57,33.46Zm-45,17.23c-.48-.11-.59.86-.85-.23s-.49-.72-.26-1.45.48-.37-.26-1.33-1-.59-1-1.69a10.18,10.18,0,0,0,0-1.94c-.13-.85.6-.25-.13-.85s-1-.71-.5-1.32a2,2,0,0,0,.58-1.83A4.16,4.16,0,0,1,24,37.43l-3.37-8.85L5.81,52.29c.43.23.57.46.14,1-.59.73-1.06,1.95-.7,2.19s-.11,1.21.38,1.7S6,58.5,6,58.86a8.82,8.82,0,0,1-.22,1.33l11.48,3.59a2.85,2.85,0,0,0,.32-.57c.35-.86,0-.85,0-1.58s0-.73,1.07-1.35,1.94-.75,2.05-1.6,0-.73,1.2-1A6.3,6.3,0,0,0,25,56.32c.71-.74,1.21,0,1.8-1.23s0-1.1,1.07-1.84.48-.25,1-1.1a.56.56,0,0,1,.56-.33l-1.13-3c-1.21.41-1.35.4-1.78.29M62.46,12.79c.15.29.45.52.51.79a.58.58,0,0,0,.27.44.53.53,0,0,1,.27.46c0,.27,0,.36.16.5s.23.26.41.47a1,1,0,0,0,.42.34c.14.06.17-.09,0-.23s-.12-.26-.33-.5-.06-.35,0-.2.15.38.36.43.26,0,.08-.17-.18-.3-.27-.44,0-.12-.09-.35a4.17,4.17,0,0,0-.06-.45l0-.11-2.29-1.91-.2.12c.26.32.59.52.74.81M17,64.22l0-.08,0,0s0,0,0,.06m2.6,3.09c-.16.09-.2.29-.41.3a.69.69,0,0,1-.45-.13.3.3,0,0,0-.37,0c-.2.08-.08.17-.45.17s-.53.09-.78,0-.2,0-.45-.16,0-.12-.45-.11-.49.08-.74,0-.17-.37-.54,0-.24.45-.77.54-.53,0-.9.09-.41,0-.61.13-.17,0-.29.29a1.17,1.17,0,0,0-.12.46c-.12.12.08-.09.37.07s.17.29.5.24a3.74,3.74,0,0,0,.94-.17,4.6,4.6,0,0,1,1.07-.18c.41,0,.69.12,1-.09a1.21,1.21,0,0,1,.86-.22,2,2,0,0,0,.7-.09c.2,0,.37.08.49,0s.32-.33.4-.17.17.33.34.16.36-.41.6-.46a.86.86,0,0,0,.5-.17.29.29,0,0,0,.07-.33c-.28-.11-.37-.11-.53,0M16.69,65,5.53,61.5c-.4.49-.82,1-1.13,1C6.46,64.18,10,67.05,10,67.05c.91-.93,1-1,1.93-.9s3.85.22,4.8-1.17m.25-.51h0l0-.17s0,.1,0,.17m0,0h0s0,0,0,0h0a.06.06,0,0,0,0,0Z"/><path class="cls-1" d="M273.44,51.47a20.29,20.29,0,0,0-3.37-12.69,13.58,13.58,0,0,0-9.26-6.15,16.68,16.68,0,0,0-6.14.16,12.94,12.94,0,0,0-9,6c-.07.12-.11.35-.39.29-.23-.28-.12-.63-.12-1,0-1.33,0-2.66,0-4,0-.94,0-1-.9-1-3.13,0-6.26,0-9.39,0-.64,0-1,.15-.9.86a4.93,4.93,0,0,1,0,.77V81c0,.3,0,.6,0,.9,0,.59.25.72.78.72,3.51,0,7,0,10.55,0h.25c.39,0,.52-.22.52-.57V63.83c.44,0,.5.29.63.48a10.62,10.62,0,0,0,4.78,3.77,15.88,15.88,0,0,0,9,.84c5.28-.94,8.85-4.08,11.06-8.86a22.72,22.72,0,0,0,2-8.59m-14,4.94a6.63,6.63,0,0,1-10.8,1.32,9.92,9.92,0,0,1-2.59-6.85,11.59,11.59,0,0,1,1.31-5.38,6.72,6.72,0,0,1,6.39-3.76,6.51,6.51,0,0,1,6.08,4,11.47,11.47,0,0,1-.39,10.64"/><path class="cls-1" d="M136.46,29.88c-1.48-3.57-4.38-5.62-7.91-6.87a30.54,30.54,0,0,0-10-1.6c-5.23-.05-10.46,0-15.69,0-1.38,0-1.24-.06-1.24,1.25,0,.21,0,.43,0,.64V44.87q0,11.19,0,22.37c0,1.21,0,1.22,1.16,1.22,3.43,0,6.86,0,10.29,0h.26c.62.07,1-.13.9-.84a6.6,6.6,0,0,1,0-.77q0-6.75,0-13.51c0-1.47-.17-1.34,1.4-1.35,2.23,0,4.46,0,6.68-.17a21.65,21.65,0,0,0,8.22-2.34,12.63,12.63,0,0,0,6-6.45,17,17,0,0,0-.1-13.15M124.27,40.24a5.5,5.5,0,0,1-3,2.28,12.8,12.8,0,0,1-4.68.55c-.72,0-1.63.3-2.12-.13s-.19-1.45-.21-2.2c0-1.37,0-2.74,0-4.11,0-1.84,0-3.67,0-5.51,0-.64.16-.93.86-.9a37.6,37.6,0,0,1,4.74.22,6.35,6.35,0,0,1,4.44,9.8"/><path class="cls-1" d="M162.31,68.94a32,32,0,0,0,6.88-1.54c1.1-.38,1.1-.39,1.1-1.51q0-3.16,0-6.31c0-.32.1-.67-.09-.95-.08,0-.13-.06-.16-.05a6,6,0,0,0-.59.23,22.84,22.84,0,0,1-11.35,2.25,12.73,12.73,0,0,1-5.21-1.24,6.73,6.73,0,0,1-3.66-5.42h1.59c6.73,0,13.46,0,20.19,0,.79,0,1.83.38,2.33-.19s.15-1.56.15-2.37a24.57,24.57,0,0,0-1.77-9.66A14.67,14.67,0,0,0,160.93,33a22.62,22.62,0,0,0-12.42.55,15.71,15.71,0,0,0-9.91,8.93,20.05,20.05,0,0,0-.49,15c2.06,5.73,6.38,9.06,12.09,10.75a30.32,30.32,0,0,0,12.11.68M150.07,43.58c1.35-2.68,3.9-3.84,7.26-3.34a5.88,5.88,0,0,1,5,5.13c.37,2.47.56,2.06-1.73,2.08-3.38,0-6.77,0-10.15,0a3.37,3.37,0,0,1-1.38-.12,9.51,9.51,0,0,1,1-3.75"/><path class="cls-1" d="M299.42,33.08a22.49,22.49,0,0,0-12.31.26A16.08,16.08,0,0,0,276,44.16a20.31,20.31,0,0,0-1,5.68c-.18,5.39,1.26,10.17,5.25,14a18.82,18.82,0,0,0,8,4.44,30.77,30.77,0,0,0,12.12.66,34.93,34.93,0,0,0,7-1.57,1.2,1.2,0,0,0,1-1.39c-.05-2.14,0-4.29,0-6.43a2.2,2.2,0,0,0-.07-.93c-.13,0-.18,0-.21,0a3.9,3.9,0,0,0-.47.2,22.73,22.73,0,0,1-11.47,2.28,12.42,12.42,0,0,1-5.32-1.3,6.58,6.58,0,0,1-3.5-5.21,3.14,3.14,0,0,1,1.44-.13h21.23c.3,0,.6,0,.9,0,.48,0,.69-.17.7-.67.07-4.32-.3-8.57-2.22-12.53a14.58,14.58,0,0,0-9.9-8.13M300,47.45H288.48a3.28,3.28,0,0,1-1.25-.09,6.75,6.75,0,0,1,4.61-6.94,7.52,7.52,0,0,1,5.14.32,6.64,6.64,0,0,1,3.6,6.2c0,.39-.2.52-.55.51"/><path class="cls-1" d="M429.82,53.26a16.5,16.5,0,0,0,6.66,11.86A19.92,19.92,0,0,0,444,68.55a31.72,31.72,0,0,0,11,.39,31.27,31.27,0,0,0,6.88-1.54c1.26-.45,1.1-.31,1.1-1.51q0-3.15,0-6.3a1.86,1.86,0,0,0-.1-1c-.3-.1-.51.1-.73.21a22.74,22.74,0,0,1-11.47,2.24,12.79,12.79,0,0,1-5-1.17A6.66,6.66,0,0,1,442,54.4h22.65c.3,0,.6,0,.9,0,.55,0,.74-.19.75-.75A30,30,0,0,0,464.79,43c-1.88-5.15-5.38-8.61-10.74-10a22.49,22.49,0,0,0-12.07.23A16.17,16.17,0,0,0,430.41,45a21.69,21.69,0,0,0-.59,8.29M446.59,40.4a7.57,7.57,0,0,1,5,.31A6.65,6.65,0,0,1,455.27,47c-.06.53-.4.46-.73.46H442.61c-.38,0-.76.09-.76-.54a7,7,0,0,1,4.74-6.51"/><path class="cls-1" d="M417.81,68.48a1.23,1.23,0,0,0,1.37-1q6.15-16.69,12.31-33.38c.1-.25.31-.52.05-.91H420.93c-1.37,0-1.21-.05-1.56,1.17q-2.65,9.14-5.3,18.25c-.53,1.81-1.07,3.62-1.63,5.53a4.26,4.26,0,0,1-.65-1.69q-3.24-11.1-6.46-22.2c-.3-1-.31-1-1.37-1H393a1.76,1.76,0,0,0-1,.15c.13.39.24.71.36,1q2,5.37,3.94,10.73,4.11,11.14,8.23,22.29c.39,1.06.21,1.06,1.42,1.06,3.94,0,7.89,0,11.83,0"/><path class="cls-1" d="M372.72,60.76a14.78,14.78,0,0,1-3.45.32,3.93,3.93,0,0,1-4.06-3.54A13.62,13.62,0,0,1,365,55c0-4.08,0-8.15,0-12.22,0-1.05,0-1.06,1.05-1.07,2.1,0,4.2,0,6.3,0,1.15,0,1.16,0,1.16-1.09,0-2.14,0-4.29,0-6.43,0-1,0-1-1-1h-6.3c-1.21,0-1.21,0-1.22-1.17V21.71a1.81,1.81,0,0,0-.46,0c-3.55,1.1-7.1,2.22-10.67,3.3a1,1,0,0,0-.76,1.11c0,1.67,0,3.34,0,5,0,2.06,0,2.06-2,2.06-1.45,0-2.91,0-4.37,0-.58,0-.84.14-.83.79,0,2.27,0,4.54,0,6.82,0,.86,0,.88,1,.88,1.67,0,3.34,0,5,0,1,0,1,0,1,1,0,4.37,0,8.75,0,13.12a31.23,31.23,0,0,0,.25,4.1c.59,4.84,3.15,7.75,7.87,8.78,4.13.91,8.26.52,12.39-.09.54-.08.59-.37.57-.8-.12-2.14-.23-4.27-.31-6.42,0-.67-.32-.74-.9-.63"/><path class="cls-1" d="M472.22,52.18a24.09,24.09,0,0,0,4.57,1.68c1.53.43,3.06.84,4.57,1.3a5.7,5.7,0,0,1,2.15,1.13,2.49,2.49,0,0,1-.73,4.35,6.67,6.67,0,0,1-2.26.43,29,29,0,0,1-11.07-1.9,2.19,2.19,0,0,0-1.28-.32c-.19,2.51-.39,5-.57,7.54-.08,1.16-.05,1.15,1,1.48a38.87,38.87,0,0,0,10.17,1.35,28.37,28.37,0,0,0,10-1.22c4.62-1.57,7.42-4.63,7.72-9.66.29-4.86-1.63-8-5.62-9.9a25.25,25.25,0,0,0-4.49-1.52c-1.66-.43-3.32-.83-5-1.29a5.07,5.07,0,0,1-2.15-1.1,1.9,1.9,0,0,1,.36-3.21,5.86,5.86,0,0,1,1.83-.59,17.79,17.79,0,0,1,6.26.13,19.14,19.14,0,0,1,5.8,2c.29-2.69.56-5.23.86-7.77a.76.76,0,0,0-.62-.94c-.37-.11-.73-.25-1.1-.36a34.33,34.33,0,0,0-13.1-1.23,16.56,16.56,0,0,0-7.06,2.22,10,10,0,0,0-5.3,8.69c-.12,3.91,1.4,6.9,5,8.71"/><path class="cls-1" d="M207.2,52a19.13,19.13,0,0,0,4.06,1.59c1.73.49,3.46,1,5.18,1.48a5.83,5.83,0,0,1,2.38,1.23,2.49,2.49,0,0,1-.73,4.28,6.68,6.68,0,0,1-2.25.45,26.59,26.59,0,0,1-6.89-.65,43.46,43.46,0,0,1-5.52-1.71c-.2,2.48-.4,4.79-.56,7.09-.14,2.11-.35,1.71,1.55,2.21a43.16,43.16,0,0,0,15.19,1,17.44,17.44,0,0,0,7.08-2.14A9.45,9.45,0,0,0,231,62a12.11,12.11,0,0,0,.42-7.57,9,9,0,0,0-5.4-6,28.93,28.93,0,0,0-5.37-1.71,38.14,38.14,0,0,1-4.46-1.21,4.46,4.46,0,0,1-1.85-1.12,1.84,1.84,0,0,1,.44-3,5.7,5.7,0,0,1,1.94-.65,17.56,17.56,0,0,1,6.26.13,19.71,19.71,0,0,1,5.79,2c.32-2.76.62-5.4.92-8,0-.31-.13-.47-.41-.56-.44-.15-.88-.32-1.33-.46a34.74,34.74,0,0,0-13.1-1.25,16.49,16.49,0,0,0-6.72,2,10.11,10.11,0,0,0-5.66,9.89A8.49,8.49,0,0,0,207.2,52"/><path class="cls-1" d="M323.57,67.08a23.41,23.41,0,0,0,9.46,2.1,33.42,33.42,0,0,0,10-1.26.91.91,0,0,0,.78-1.08c-.09-1.84-.13-3.68-.19-5.53,0-.83-.07-1.67-.1-2.47a1.37,1.37,0,0,0-1,.23,16.58,16.58,0,0,1-7.3,1.21c-5-.31-9.74-4-9.22-10.34a8.89,8.89,0,0,1,7.73-8.49,13.24,13.24,0,0,1,7.64,1.15,3.33,3.33,0,0,0,1.28.51c.28-2.67.51-5.27.83-7.86a1,1,0,0,0-.85-1.32c-.29-.08-.56-.22-.84-.31a26,26,0,0,0-16.19.1c-5.83,1.94-9.84,5.76-11.55,11.78a19.27,19.27,0,0,0-.66,6.37c.39,7,3.69,12.16,10.11,15.21"/><path class="cls-1" d="M193.23,43.23a9.81,9.81,0,0,1,3.64-.69,18.45,18.45,0,0,1,4,.36,16.93,16.93,0,0,0,.27-3c.17-2.09.25-4.19.4-6.29,0-.57-.11-.82-.73-.92-.89-.13-1.79-.18-2.68-.24A10.28,10.28,0,0,0,188,37.78l-.89,1.53-.24-.08c0-1.66,0-3.33,0-5,0-1,0-1-1-1-3,0-6.09,0-9.13,0-1,0-1,0-1,1q0,16.59,0,33.17c0,1,0,1,1.09,1,2.36,0,4.72,0,7.08,0,1.07,0,2.14,0,3.21,0,.56,0,.79-.21.75-.75,0-.3,0-.6,0-.9,0-4.38,0-8.75,0-13.12a15.08,15.08,0,0,1,1.2-6.39,7.68,7.68,0,0,1,4.08-4.08"/><path class="cls-1" d="M389.45,67.33V34.27c0-1.05,0-1.06-1-1.06H378c-.41,0-.64.15-.63.59s0,.6,0,.9V50.78c0,5.53,0,11.07,0,16.6,0,1.06,0,1.08,1.05,1.08,3.3,0,6.61,0,9.91,0,1.12,0,1.13,0,1.13-1.13"/><path class="cls-1" d="M378.13,27.55c3.51,0,7,0,10.53,0,.63,0,.81-.24.8-.83,0-2.4,0-4.79,0-7.19,0-.88,0-.89-1-.9h-5c-1.75,0-3.51,0-5.26,0-.55,0-.88.08-.87.76,0,2.48,0,5,0,7.44,0,.58.26.73.78.73"/><path class="cls-1" d="M503.05,38.65c0,.21,0,.42,0,.64s.07.33.29.35.39-.14.41-.38,0-.51,0-.76c0-.84,0-1.67,0-2.54.47.11.47.41.55.62.36.87.68,1.75,1,2.63.09.25.21.47.53.46s.45-.21.55-.46c.25-.63.48-1.28.75-1.91a3.5,3.5,0,0,1,.82-1.6c0,1.19,0,2.22,0,3.25,0,.27-.1.66.34.69s.41-.34.41-.63c0-1.33,0-2.65,0-4,0-.31,0-.63-.43-.64s-.7-.11-.9.3c-.1.23-.19.47-.28.71l-1.26,3.28c-.56-1.44-1-2.59-1.43-3.76-.19-.54-.56-.58-1-.53s-.41.47-.41.79c0,1.16,0,2.31,0,3.47"/><path class="cls-1" d="M499.84,36.13c0,1,0,2,0,3.07,0,.29.13.49.47.45s.28-.28.29-.48c0-.9,0-1.79,0-2.69,0-.42-.17-.9.13-1.24s.73-.1,1.1-.15c.22,0,.44-.1.41-.36a.41.41,0,0,0-.46-.36h-1.53c-.56,0-1.11,0-1.66,0a.33.33,0,0,0-.35.3c0,.27.14.37.38.39l.25,0c.93.1.93.1.95,1"/></g></g></svg>